<svg xmlns="http://www.w3.org/2000/svg" width="32" height="32" viewBox="0 0 32 32" fill="none">
<g filter="url(#filter0_d_3546_6379)">
<mask id="path-1-outside-1_3546_6379" maskUnits="userSpaceOnUse" x="7.37573" y="7" width="17" height="18" fill="black">
<rect fill="white" x="7.37573" y="7" width="17" height="18"/>
<path fill-rule="evenodd" clip-rule="evenodd" d="M14.9434 9.02832C14.9434 8.46041 15.4038 8.00002 15.9717 8C15.9717 8 15.9718 8 15.9718 8C16.5397 8.00002 17.0001 8.46041 17.0001 9.02832V9.87226L17.0001 9.88213V15.9998H18.0001V10.9031H18.0001V9.87515C18.0038 9.32605 18.4501 8.88209 19.0001 8.88213C19.5524 8.88216 20.0001 9.32987 20.0001 9.88213V15.9999H21.0001V15.8547H21.0001V12.9998C21.0001 12.4534 21.4383 12.0094 21.9825 12H22.0177C22.5618 12.0094 23 12.4534 23 12.9998V18.3116C22.9891 21.4549 20.4376 23.9997 17.2917 23.9997H17.007C15.9561 23.9997 14.9392 23.6703 14.0943 23.0687L8.65786 17.6323C8.31893 17.2934 8.28078 16.7568 8.56834 16.3733C8.89948 15.9318 9.53323 15.8582 9.95671 16.2122L11.1043 17.1715V17.1719L11.1168 17.182L11.2223 17.2702L11.2238 17.2685L12.0005 17.8962V17H12.0001V16.5001C12.0001 16.5001 12.0001 16.5001 12.0001 16.5001V10.9003C12.004 10.368 12.4387 9.93587 12.9739 9.93587C13.509 9.93587 13.9433 10.3699 13.9433 10.9031H13.9434V15.9999H14.9434V9.02832Z"/>
</mask>
<path fill-rule="evenodd" clip-rule="evenodd" d="M14.9434 9.02832C14.9434 8.46041 15.4038 8.00002 15.9717 8C15.9717 8 15.9718 8 15.9718 8C16.5397 8.00002 17.0001 8.46041 17.0001 9.02832V9.87226L17.0001 9.88213V15.9998H18.0001V10.9031H18.0001V9.87515C18.0038 9.32605 18.4501 8.88209 19.0001 8.88213C19.5524 8.88216 20.0001 9.32987 20.0001 9.88213V15.9999H21.0001V15.8547H21.0001V12.9998C21.0001 12.4534 21.4383 12.0094 21.9825 12H22.0177C22.5618 12.0094 23 12.4534 23 12.9998V18.3116C22.9891 21.4549 20.4376 23.9997 17.2917 23.9997H17.007C15.9561 23.9997 14.9392 23.6703 14.0943 23.0687L8.65786 17.6323C8.31893 17.2934 8.28078 16.7568 8.56834 16.3733C8.89948 15.9318 9.53323 15.8582 9.95671 16.2122L11.1043 17.1715V17.1719L11.1168 17.182L11.2223 17.2702L11.2238 17.2685L12.0005 17.8962V17H12.0001V16.5001C12.0001 16.5001 12.0001 16.5001 12.0001 16.5001V10.9003C12.004 10.368 12.4387 9.93587 12.9739 9.93587C13.509 9.93587 13.9433 10.3699 13.9433 10.9031H13.9434V15.9999H14.9434V9.02832Z" fill="white"/>
<path d="M15.9717 8V7H15.9717L15.9717 8ZM15.9718 8L15.9718 7H15.9718V8ZM17.0001 9.87226L18.0001 9.87467V9.87226H17.0001ZM17.0001 9.88213L16.0001 9.87971V9.88213H17.0001ZM17.0001 15.9998H16.0001V16.9998H17.0001V15.9998ZM18.0001 15.9998V16.9998H19.0001V15.9998H18.0001ZM18.0001 10.9031V9.90312H17.0001V10.9031H18.0001ZM18.0001 10.9031V11.9031H19.0001V10.9031H18.0001ZM18.0001 9.87515L17.0001 9.86832V9.87515H18.0001ZM19.0001 8.88213L19.0001 9.88213L19.0001 8.88213ZM20.0001 15.9999H19.0001V16.9999H20.0001V15.9999ZM21.0001 15.9999V16.9999H22.0001V15.9999H21.0001ZM21.0001 15.8547V14.8547H20.0001V15.8547H21.0001ZM21.0001 15.8547V16.8547H22.0001V15.8547H21.0001ZM21.9825 12V11H21.9739L21.9652 11.0001L21.9825 12ZM22.0177 12L22.0349 11.0001L22.0263 11H22.0177V12ZM23 18.3116L24 18.3151V18.3116H23ZM14.0943 23.0687L13.3872 23.7758L13.4463 23.8349L13.5143 23.8833L14.0943 23.0687ZM8.65786 17.6323L9.36496 16.9252H9.36496L8.65786 17.6323ZM8.56834 16.3733L9.36838 16.9733H9.36838L8.56834 16.3733ZM9.95671 16.2122L9.31533 16.9794H9.31533L9.95671 16.2122ZM11.1043 17.1715H12.1043V16.7041L11.7456 16.4043L11.1043 17.1715ZM11.1043 17.1719H10.1043V17.6494L10.4757 17.9496L11.1043 17.1719ZM11.1168 17.182L11.7582 16.4148L11.7518 16.4095L11.7454 16.4043L11.1168 17.182ZM11.2223 17.2702L10.581 18.0375L11.3481 18.6788L11.9895 17.9117L11.2223 17.2702ZM11.2238 17.2685L11.8524 16.4907L11.0875 15.8725L10.4566 16.627L11.2238 17.2685ZM12.0005 17.8962L11.3719 18.6739L13.0005 19.9902V17.8962H12.0005ZM12.0005 17H13.0005V16H12.0005V17ZM12.0001 17H11.0001V18H12.0001V17ZM12.0001 16.5001V15.5001H11.0001V16.5001H12.0001ZM12.0001 16.5001V17.5001H13.0001V16.5001H12.0001ZM12.0001 10.9003L11.0001 10.893V10.9003H12.0001ZM13.9433 10.9031L12.9433 10.9031L12.9432 11.9031H13.9433V10.9031ZM13.9434 10.9031H14.9434V9.90309H13.9434V10.9031ZM13.9434 15.9999H12.9434V16.9999H13.9434V15.9999ZM14.9434 15.9999V16.9999H15.9434V15.9999H14.9434ZM15.9717 7C14.8515 7.00004 13.9434 7.90814 13.9434 9.02832H15.9434C15.9434 9.02257 15.9444 9.0196 15.9453 9.0176C15.9464 9.01494 15.9484 9.01158 15.9517 9.0083C15.955 9.00501 15.9584 9.00294 15.961 9.00182C15.963 9.00097 15.966 9 15.9718 9L15.9717 7ZM15.9718 7H15.9718C15.9718 7 15.9718 7 15.9718 7C15.9718 7 15.9718 7 15.9718 7C15.9718 7 15.9718 7 15.9718 7C15.9718 7 15.9718 7 15.9718 7C15.9718 7 15.9718 7 15.9718 7C15.9718 7 15.9718 7 15.9718 7H15.9718H15.9718H15.9718H15.9718C15.9718 7 15.9718 7 15.9718 7C15.9718 7 15.9718 7 15.9718 7C15.9718 7 15.9718 7 15.9718 7C15.9718 7 15.9718 7 15.9718 7C15.9718 7 15.9718 7 15.9718 7C15.9718 7 15.9718 7 15.9718 7H15.9718H15.9718H15.9718H15.9718C15.9718 7 15.9718 7 15.9718 7C15.9718 7 15.9718 7 15.9718 7C15.9718 7 15.9718 7 15.9718 7C15.9718 7 15.9718 7 15.9718 7C15.9718 7 15.9718 7 15.9718 7C15.9718 7 15.9718 7 15.9718 7C15.9718 7 15.9718 7 15.9718 7H15.9718H15.9718H15.9718C15.9718 7 15.9718 7 15.9718 7C15.9718 7 15.9718 7 15.9718 7C15.9718 7 15.9718 7 15.9718 7C15.9718 7 15.9718 7 15.9718 7C15.9718 7 15.9718 7 15.9718 7C15.9718 7 15.9718 7 15.9718 7C15.9718 7 15.9718 7 15.9718 7H15.9718H15.9718H15.9718H15.9718C15.9718 7 15.9718 7 15.9718 7C15.9718 7 15.9718 7 15.9718 7C15.9718 7 15.9718 7 15.9718 7C15.9718 7 15.9718 7 15.9718 7C15.9718 7 15.9718 7 15.9718 7C15.9718 7 15.9718 7 15.9718 7C15.9718 7 15.9718 7 15.9718 7C15.9718 7 15.9718 7 15.9718 7H15.9718H15.9718H15.9718H15.9718C15.9718 7 15.9718 7 15.9718 7C15.9718 7 15.9718 7 15.9718 7C15.9718 7 15.9718 7 15.9718 7C15.9718 7 15.9718 7 15.9718 7C15.9718 7 15.9718 7 15.9718 7C15.9718 7 15.9718 7 15.9718 7C15.9718 7 15.9718 7 15.9718 7H15.9718H15.9718H15.9718H15.9718C15.9718 7 15.9718 7 15.9718 7C15.9718 7 15.9718 7 15.9718 7C15.9718 7 15.9718 7 15.9718 7C15.9718 7 15.9718 7 15.9718 7C15.9718 7 15.9718 7 15.9718 7C15.9718 7 15.9718 7 15.9718 7C15.9718 7 15.9718 7 15.9718 7C15.9718 7 15.9718 7 15.9718 7H15.9718H15.9718H15.9718H15.9718C15.9718 7 15.9718 7 15.9718 7C15.9718 7 15.9718 7 15.9718 7C15.9718 7 15.9718 7 15.9718 7C15.9718 7 15.9718 7 15.9718 7C15.9718 7 15.9718 7 15.9718 7C15.9718 7 15.9718 7 15.9718 7C15.9718 7 15.9718 7 15.9718 7C15.9718 7 15.9718 7 15.9718 7H15.9718H15.9718H15.9718H15.9718C15.9718 7 15.9718 7 15.9718 7C15.9718 7 15.9718 7 15.9718 7C15.9718 7 15.9718 7 15.9718 7C15.9718 7 15.9718 7 15.9718 7C15.9718 7 15.9718 7 15.9718 7C15.9718 7 15.9718 7 15.9718 7C15.9718 7 15.9718 7 15.9718 7C15.9718 7 15.9718 7 15.9718 7H15.9718H15.9718H15.9718H15.9718C15.9718 7 15.9718 7 15.9718 7C15.9718 7 15.9718 7 15.9718 7C15.9718 7 15.9718 7 15.9718 7C15.9718 7 15.9718 7 15.9718 7C15.9718 7 15.9718 7 15.9718 7C15.9718 7 15.9718 7 15.9718 7C15.9718 7 15.9718 7 15.9718 7C15.9718 7 15.9718 7 15.9718 7H15.9718H15.9717H15.9717H15.9717C15.9717 7 15.9717 7 15.9717 7C15.9717 7 15.9717 7 15.9717 7C15.9717 7 15.9717 7 15.9717 7C15.9717 7 15.9717 7 15.9717 7C15.9717 7 15.9717 7 15.9717 7C15.9717 7 15.9717 7 15.9717 7C15.9717 7 15.9717 7 15.9717 7C15.9717 7 15.9717 7 15.9717 7H15.9717H15.9717H15.9717H15.9717C15.9717 7 15.9717 7 15.9717 7C15.9717 7 15.9717 7 15.9717 7C15.9717 7 15.9717 7 15.9717 7C15.9717 7 15.9717 7 15.9717 7C15.9717 7 15.9717 7 15.9717 7C15.9717 7 15.9717 7 15.9717 7C15.9717 7 15.9717 7 15.9717 7C15.9717 7 15.9717 7 15.9717 7H15.9717H15.9717H15.9717C15.9717 7 15.9717 7 15.9717 7C15.9717 7 15.9717 7 15.9717 7C15.9717 7 15.9717 7 15.9717 7C15.9717 7 15.9717 7 15.9717 7C15.9717 7 15.9717 7 15.9717 7C15.9717 7 15.9717 7 15.9717 7C15.9717 7 15.9717 7 15.9717 7C15.9717 7 15.9717 7 15.9717 7H15.9717H15.9717H15.9717C15.9717 7 15.9717 7 15.9717 7C15.9717 7 15.9717 7 15.9717 7C15.9717 7 15.9717 7 15.9717 7C15.9717 7 15.9717 7 15.9717 7C15.9717 7 15.9717 7 15.9717 7C15.9717 7 15.9717 7 15.9717 7C15.9717 7 15.9717 7 15.9717 7H15.9717H15.9717H15.9717H15.9717C15.9717 7 15.9717 7 15.9717 7C15.9717 7 15.9717 7 15.9717 7C15.9717 7 15.9717 7 15.9717 7C15.9717 7 15.9717 7 15.9717 7C15.9717 7 15.9717 7 15.9717 7C15.9717 7 15.9717 7 15.9717 7H15.9717H15.9717H15.9717H15.9717C15.9717 7 15.9717 7 15.9717 7C15.9717 7 15.9717 7 15.9717 7C15.9717 7 15.9717 7 15.9717 7C15.9717 7 15.9717 7 15.9717 7C15.9717 7 15.9717 7 15.9717 7C15.9717 7 15.9717 7 15.9717 7H15.9717H15.9717V9H15.9717H15.9717C15.9717 9 15.9717 9 15.9717 9C15.9717 9 15.9717 9 15.9717 9C15.9717 9 15.9717 9 15.9717 9C15.9717 9 15.9717 9 15.9717 9C15.9717 9 15.9717 9 15.9717 9C15.9717 9 15.9717 9 15.9717 9H15.9717H15.9717H15.9717H15.9717C15.9717 9 15.9717 9 15.9717 9C15.9717 9 15.9717 9 15.9717 9C15.9717 9 15.9717 9 15.9717 9C15.9717 9 15.9717 9 15.9717 9C15.9717 9 15.9717 9 15.9717 9C15.9717 9 15.9717 9 15.9717 9H15.9717H15.9717H15.9717H15.9717C15.9717 9 15.9717 9 15.9717 9C15.9717 9 15.9717 9 15.9717 9C15.9717 9 15.9717 9 15.9717 9C15.9717 9 15.9717 9 15.9717 9C15.9717 9 15.9717 9 15.9717 9C15.9717 9 15.9717 9 15.9717 9C15.9717 9 15.9717 9 15.9717 9H15.9717H15.9717H15.9717C15.9717 9 15.9717 9 15.9717 9C15.9717 9 15.9717 9 15.9717 9C15.9717 9 15.9717 9 15.9717 9C15.9717 9 15.9717 9 15.9717 9C15.9717 9 15.9717 9 15.9717 9C15.9717 9 15.9717 9 15.9717 9C15.9717 9 15.9717 9 15.9717 9C15.9717 9 15.9717 9 15.9717 9H15.9717H15.9717H15.9717C15.9717 9 15.9717 9 15.9717 9C15.9717 9 15.9717 9 15.9717 9C15.9717 9 15.9717 9 15.9717 9C15.9717 9 15.9717 9 15.9717 9C15.9717 9 15.9717 9 15.9717 9C15.9717 9 15.9717 9 15.9717 9C15.9717 9 15.9717 9 15.9717 9C15.9717 9 15.9717 9 15.9717 9H15.9717H15.9717H15.9717H15.9717C15.9717 9 15.9717 9 15.9717 9C15.9717 9 15.9717 9 15.9717 9C15.9717 9 15.9717 9 15.9717 9C15.9717 9 15.9717 9 15.9717 9C15.9717 9 15.9717 9 15.9717 9C15.9717 9 15.9717 9 15.9717 9C15.9717 9 15.9717 9 15.9717 9C15.9717 9 15.9717 9 15.9717 9H15.9717H15.9717H15.9718H15.9718C15.9718 9 15.9718 9 15.9718 9C15.9718 9 15.9718 9 15.9718 9C15.9718 9 15.9718 9 15.9718 9C15.9718 9 15.9718 9 15.9718 9C15.9718 9 15.9718 9 15.9718 9C15.9718 9 15.9718 9 15.9718 9C15.9718 9 15.9718 9 15.9718 9C15.9718 9 15.9718 9 15.9718 9H15.9718H15.9718H15.9718H15.9718C15.9718 9 15.9718 9 15.9718 9C15.9718 9 15.9718 9 15.9718 9C15.9718 9 15.9718 9 15.9718 9C15.9718 9 15.9718 9 15.9718 9C15.9718 9 15.9718 9 15.9718 9C15.9718 9 15.9718 9 15.9718 9C15.9718 9 15.9718 9 15.9718 9C15.9718 9 15.9718 9 15.9718 9H15.9718H15.9718H15.9718H15.9718C15.9718 9 15.9718 9 15.9718 9C15.9718 9 15.9718 9 15.9718 9C15.9718 9 15.9718 9 15.9718 9C15.9718 9 15.9718 9 15.9718 9C15.9718 9 15.9718 9 15.9718 9C15.9718 9 15.9718 9 15.9718 9C15.9718 9 15.9718 9 15.9718 9C15.9718 9 15.9718 9 15.9718 9H15.9718H15.9718H15.9718H15.9718C15.9718 9 15.9718 9 15.9718 9C15.9718 9 15.9718 9 15.9718 9C15.9718 9 15.9718 9 15.9718 9C15.9718 9 15.9718 9 15.9718 9C15.9718 9 15.9718 9 15.9718 9C15.9718 9 15.9718 9 15.9718 9C15.9718 9 15.9718 9 15.9718 9C15.9718 9 15.9718 9 15.9718 9H15.9718H15.9718H15.9718H15.9718C15.9718 9 15.9718 9 15.9718 9C15.9718 9 15.9718 9 15.9718 9C15.9718 9 15.9718 9 15.9718 9C15.9718 9 15.9718 9 15.9718 9C15.9718 9 15.9718 9 15.9718 9C15.9718 9 15.9718 9 15.9718 9C15.9718 9 15.9718 9 15.9718 9H15.9718H15.9718H15.9718H15.9718C15.9718 9 15.9718 9 15.9718 9C15.9718 9 15.9718 9 15.9718 9C15.9718 9 15.9718 9 15.9718 9C15.9718 9 15.9718 9 15.9718 9C15.9718 9 15.9718 9 15.9718 9C15.9718 9 15.9718 9 15.9718 9C15.9718 9 15.9718 9 15.9718 9C15.9718 9 15.9718 9 15.9718 9H15.9718H15.9718H15.9718H15.9718C15.9718 9 15.9718 9 15.9718 9C15.9718 9 15.9718 9 15.9718 9C15.9718 9 15.9718 9 15.9718 9C15.9718 9 15.9718 9 15.9718 9C15.9718 9 15.9718 9 15.9718 9C15.9718 9 15.9718 9 15.9718 9C15.9718 9 15.9718 9 15.9718 9H15.9718H15.9718H15.9718C15.9718 9 15.9718 9 15.9718 9C15.9718 9 15.9718 9 15.9718 9C15.9718 9 15.9718 9 15.9718 9C15.9718 9 15.9718 9 15.9718 9C15.9718 9 15.9718 9 15.9718 9C15.9718 9 15.9718 9 15.9718 9C15.9718 9 15.9718 9 15.9718 9H15.9718H15.9718H15.9718H15.9718C15.9718 9 15.9718 9 15.9718 9C15.9718 9 15.9718 9 15.9718 9C15.9718 9 15.9718 9 15.9718 9C15.9718 9 15.9718 9 15.9718 9C15.9718 9 15.9718 9 15.9718 9C15.9718 9 15.9718 9 15.9718 9H15.9718H15.9718H15.9718H15.9718C15.9718 9 15.9718 9 15.9718 9C15.9718 9 15.9718 9 15.9718 9C15.9718 9 15.9718 9 15.9718 9C15.9718 9 15.9718 9 15.9718 9C15.9718 9 15.9718 9 15.9718 9C15.9718 9 15.9718 9 15.9718 9H15.9718V7ZM18.0001 9.02832C18.0001 7.90813 17.092 7.00004 15.9718 7L15.9718 9C15.9775 9 15.9805 9.00097 15.9825 9.00182C15.9851 9.00294 15.9885 9.00501 15.9918 9.0083C15.9951 9.01158 15.9971 9.01494 15.9983 9.0176C15.9991 9.0196 16.0001 9.02257 16.0001 9.02832H18.0001ZM18.0001 9.87226V9.02832H16.0001V9.87226H18.0001ZM18.0001 9.88454L18.0001 9.87467L16.0001 9.86984L16.0001 9.87971L18.0001 9.88454ZM18.0001 15.9998V9.88213H16.0001V15.9998H18.0001ZM18.0001 14.9998H17.0001V16.9998H18.0001V14.9998ZM17.0001 10.9031V15.9998H19.0001V10.9031H17.0001ZM18.0001 9.90312H18.0001V11.9031H18.0001V9.90312ZM17.0001 9.87515V10.9031H19.0001V9.87515H17.0001ZM19.0002 7.88213C17.9002 7.88206 17.0076 8.76997 17.0001 9.86832L19.0001 9.88198L19.0001 9.88213L19.0002 7.88213ZM21.0001 9.88213C21.0001 8.77761 20.1047 7.8822 19.0002 7.88213L19.0001 9.88213V9.88213H21.0001ZM21.0001 15.9999V9.88213H19.0001V15.9999H21.0001ZM21.0001 14.9999H20.0001V16.9999H21.0001V14.9999ZM20.0001 15.8547V15.9999H22.0001V15.8547H20.0001ZM21.0001 14.8547H21.0001V16.8547H21.0001V14.8547ZM20.0001 12.9998V15.8547H22.0001V12.9998H20.0001ZM21.9652 11.0001C20.8765 11.0189 20.0001 11.9069 20.0001 12.9998H22.0001L21.9997 12.9999L21.9652 11.0001ZM21.9825 13H22.0177V11H21.9825V13ZM24 12.9998C24 11.9069 23.1236 11.0189 22.0349 11.0001L22.0004 12.9999L22 12.9998H24ZM24 18.3116V12.9998H22V18.3116H24ZM17.2917 24.9997C20.9887 24.9997 23.9872 22.0092 24 18.3151L22.0001 18.3082C21.991 20.9007 19.8865 22.9997 17.2917 22.9997V24.9997ZM17.007 24.9997H17.2917V22.9997H17.007V24.9997ZM13.5143 23.8833C14.5274 24.6047 15.7468 24.9997 17.007 24.9997V22.9997C16.1654 22.9997 15.351 22.7359 14.6743 22.2541L13.5143 23.8833ZM7.95075 18.3394L13.3872 23.7758L14.8014 22.3616L9.36496 16.9252L7.95075 18.3394ZM7.7683 15.7734C7.18219 16.555 7.25995 17.6486 7.95075 18.3394L9.36496 16.9252C9.37791 16.9381 9.37937 16.9586 9.36838 16.9733L7.7683 15.7734ZM10.5981 15.445C9.73495 14.7234 8.44323 14.8734 7.7683 15.7734L9.36838 16.9733C9.36653 16.9758 9.36227 16.9799 9.35642 16.9832C9.35131 16.9861 9.3468 16.9873 9.34318 16.9878C9.33956 16.9882 9.33489 16.988 9.32926 16.9864C9.32281 16.9845 9.31771 16.9814 9.31533 16.9794L10.5981 15.445ZM11.7456 16.4043L10.5981 15.445L9.31533 16.9794L10.4629 17.9388L11.7456 16.4043ZM12.1043 17.1719V17.1715H10.1043V17.1719H12.1043ZM11.7454 16.4043L11.7329 16.3941L10.4757 17.9496L10.4882 17.9597L11.7454 16.4043ZM11.8637 16.503L11.7582 16.4148L10.4754 17.9492L10.581 18.0375L11.8637 16.503ZM10.4566 16.627L10.4552 16.6288L11.9895 17.9117L11.991 17.9099L10.4566 16.627ZM12.6291 17.1185L11.8524 16.4907L10.5952 18.0462L11.3719 18.6739L12.6291 17.1185ZM11.0005 17V17.8962H13.0005V17H11.0005ZM12.0001 18H12.0005V16H12.0001V18ZM11.0001 16.5001V17H13.0001V16.5001H11.0001ZM12.0001 17.5001H12.0001C12.0001 17.5001 12.0001 17.5001 12.0001 17.5001C12.0001 17.5001 12.0001 17.5001 12.0001 17.5001H12.0001C12.0001 17.5001 12.0001 17.5001 12.0001 17.5001H12.0001C12.0001 17.5001 12.0001 17.5001 12.0001 17.5001C12.0001 17.5001 12.0001 17.5001 12.0001 17.5001H12.0001C12.0001 17.5001 12.0001 17.5001 12.0001 17.5001C12.0001 17.5001 12.0001 17.5001 12.0001 17.5001H12.0001C12.0001 17.5001 12.0001 17.5001 12.0001 17.5001H12.0001C12.0001 17.5001 12.0001 17.5001 12.0001 17.5001C12.0001 17.5001 12.0001 17.5001 12.0001 17.5001H12.0001C12.0001 17.5001 12.0001 17.5001 12.0001 17.5001C12.0001 17.5001 12.0001 17.5001 12.0001 17.5001H12.0001C12.0001 17.5001 12.0001 17.5001 12.0001 17.5001C12.0001 17.5001 12.0001 17.5001 12.0001 17.5001H12.0001C12.0001 17.5001 12.0001 17.5001 12.0001 17.5001C12.0001 17.5001 12.0001 17.5001 12.0001 17.5001H12.0001C12.0001 17.5001 12.0001 17.5001 12.0001 17.5001C12.0001 17.5001 12.0001 17.5001 12.0001 17.5001H12.0001C12.0001 17.5001 12.0001 17.5001 12.0001 17.5001C12.0001 17.5001 12.0001 17.5001 12.0001 17.5001H12.0001C12.0001 17.5001 12.0001 17.5001 12.0001 17.5001C12.0001 17.5001 12.0001 17.5001 12.0001 17.5001H12.0001C12.0001 17.5001 12.0001 17.5001 12.0001 17.5001C12.0001 17.5001 12.0001 17.5001 12.0001 17.5001H12.0001C12.0001 17.5001 12.0001 17.5001 12.0001 17.5001C12.0001 17.5001 12.0001 17.5001 12.0001 17.5001H12.0001C12.0001 17.5001 12.0001 17.5001 12.0001 17.5001C12.0001 17.5001 12.0001 17.5001 12.0001 17.5001H12.0001C12.0001 17.5001 12.0001 17.5001 12.0001 17.5001C12.0001 17.5001 12.0001 17.5001 12.0001 17.5001H12.0001C12.0001 17.5001 12.0001 17.5001 12.0001 17.5001C12.0001 17.5001 12.0001 17.5001 12.0001 17.5001H12.0001C12.0001 17.5001 12.0001 17.5001 12.0001 17.5001C12.0001 17.5001 12.0001 17.5001 12.0001 17.5001H12.0001C12.0001 17.5001 12.0001 17.5001 12.0001 17.5001C12.0001 17.5001 12.0001 17.5001 12.0001 17.5001H12.0001C12.0001 17.5001 12.0001 17.5001 12.0001 17.5001C12.0001 17.5001 12.0001 17.5001 12.0001 17.5001H12.0001C12.0001 17.5001 12.0001 17.5001 12.0001 17.5001C12.0001 17.5001 12.0001 17.5001 12.0001 17.5001H12.0001C12.0001 17.5001 12.0001 17.5001 12.0001 17.5001C12.0001 17.5001 12.0001 17.5001 12.0001 17.5001H12.0001C12.0001 17.5001 12.0001 17.5001 12.0001 17.5001C12.0001 17.5001 12.0001 17.5001 12.0001 17.5001H12.0001C12.0001 17.5001 12.0001 17.5001 12.0001 17.5001C12.0001 17.5001 12.0001 17.5001 12.0001 17.5001H12.0001C12.0001 17.5001 12.0001 17.5001 12.0001 17.5001C12.0001 17.5001 12.0001 17.5001 12.0001 17.5001H12.0001C12.0001 17.5001 12.0001 17.5001 12.0001 17.5001C12.0001 17.5001 12.0001 17.5001 12.0001 17.5001H12.0001C12.0001 17.5001 12.0001 17.5001 12.0001 17.5001C12.0001 17.5001 12.0001 17.5001 12.0001 17.5001H12.0001C12.0001 17.5001 12.0001 17.5001 12.0001 17.5001C12.0001 17.5001 12.0001 17.5001 12.0001 17.5001H12.0001C12.0001 17.5001 12.0001 17.5001 12.0001 17.5001C12.0001 17.5001 12.0001 17.5001 12.0001 17.5001H12.0001C12.0001 17.5001 12.0001 17.5001 12.0001 17.5001C12.0001 17.5001 12.0001 17.5001 12.0001 17.5001H12.0001C12.0001 17.5001 12.0001 17.5001 12.0001 17.5001C12.0001 17.5001 12.0001 17.5001 12.0001 17.5001H12.0001C12.0001 17.5001 12.0001 17.5001 12.0001 17.5001C12.0001 17.5001 12.0001 17.5001 12.0001 17.5001H12.0001C12.0001 17.5001 12.0001 17.5001 12.0001 17.5001C12.0001 17.5001 12.0001 17.5001 12.0001 17.5001H12.0001C12.0001 17.5001 12.0001 17.5001 12.0001 17.5001H12.0001C12.0001 17.5001 12.0001 17.5001 12.0001 17.5001C12.0001 17.5001 12.0001 17.5001 12.0001 17.5001H12.0001C12.0001 17.5001 12.0001 17.5001 12.0001 17.5001C12.0001 17.5001 12.0001 17.5001 12.0001 17.5001H12.0001C12.0001 17.5001 12.0001 17.5001 12.0001 17.5001H12.0001C12.0001 17.5001 12.0001 17.5001 12.0001 17.5001C12.0001 17.5001 12.0001 17.5001 12.0001 17.5001V15.5001C12.0001 15.5001 12.0001 15.5001 12.0001 15.5001C12.0001 15.5001 12.0001 15.5001 12.0001 15.5001H12.0001C12.0001 15.5001 12.0001 15.5001 12.0001 15.5001H12.0001C12.0001 15.5001 12.0001 15.5001 12.0001 15.5001C12.0001 15.5001 12.0001 15.5001 12.0001 15.5001H12.0001C12.0001 15.5001 12.0001 15.5001 12.0001 15.5001C12.0001 15.5001 12.0001 15.5001 12.0001 15.5001H12.0001C12.0001 15.5001 12.0001 15.5001 12.0001 15.5001H12.0001C12.0001 15.5001 12.0001 15.5001 12.0001 15.5001C12.0001 15.5001 12.0001 15.5001 12.0001 15.5001H12.0001C12.0001 15.5001 12.0001 15.5001 12.0001 15.5001C12.0001 15.5001 12.0001 15.5001 12.0001 15.5001H12.0001C12.0001 15.5001 12.0001 15.5001 12.0001 15.5001C12.0001 15.5001 12.0001 15.5001 12.0001 15.5001H12.0001C12.0001 15.5001 12.0001 15.5001 12.0001 15.5001C12.0001 15.5001 12.0001 15.5001 12.0001 15.5001H12.0001C12.0001 15.5001 12.0001 15.5001 12.0001 15.5001C12.0001 15.5001 12.0001 15.5001 12.0001 15.5001H12.0001C12.0001 15.5001 12.0001 15.5001 12.0001 15.5001C12.0001 15.5001 12.0001 15.5001 12.0001 15.5001H12.0001C12.0001 15.5001 12.0001 15.5001 12.0001 15.5001C12.0001 15.5001 12.0001 15.5001 12.0001 15.5001H12.0001C12.0001 15.5001 12.0001 15.5001 12.0001 15.5001C12.0001 15.5001 12.0001 15.5001 12.0001 15.5001H12.0001C12.0001 15.5001 12.0001 15.5001 12.0001 15.5001C12.0001 15.5001 12.0001 15.5001 12.0001 15.5001H12.0001C12.0001 15.5001 12.0001 15.5001 12.0001 15.5001C12.0001 15.5001 12.0001 15.5001 12.0001 15.5001H12.0001C12.0001 15.5001 12.0001 15.5001 12.0001 15.5001C12.0001 15.5001 12.0001 15.5001 12.0001 15.5001H12.0001C12.0001 15.5001 12.0001 15.5001 12.0001 15.5001C12.0001 15.5001 12.0001 15.5001 12.0001 15.5001H12.0001C12.0001 15.5001 12.0001 15.5001 12.0001 15.5001C12.0001 15.5001 12.0001 15.5001 12.0001 15.5001H12.0001C12.0001 15.5001 12.0001 15.5001 12.0001 15.5001C12.0001 15.5001 12.0001 15.5001 12.0001 15.5001H12.0001C12.0001 15.5001 12.0001 15.5001 12.0001 15.5001C12.0001 15.5001 12.0001 15.5001 12.0001 15.5001H12.0001C12.0001 15.5001 12.0001 15.5001 12.0001 15.5001C12.0001 15.5001 12.0001 15.5001 12.0001 15.5001H12.0001C12.0001 15.5001 12.0001 15.5001 12.0001 15.5001C12.0001 15.5001 12.0001 15.5001 12.0001 15.5001H12.0001C12.0001 15.5001 12.0001 15.5001 12.0001 15.5001C12.0001 15.5001 12.0001 15.5001 12.0001 15.5001H12.0001C12.0001 15.5001 12.0001 15.5001 12.0001 15.5001C12.0001 15.5001 12.0001 15.5001 12.0001 15.5001H12.0001C12.0001 15.5001 12.0001 15.5001 12.0001 15.5001C12.0001 15.5001 12.0001 15.5001 12.0001 15.5001H12.0001C12.0001 15.5001 12.0001 15.5001 12.0001 15.5001C12.0001 15.5001 12.0001 15.5001 12.0001 15.5001H12.0001C12.0001 15.5001 12.0001 15.5001 12.0001 15.5001C12.0001 15.5001 12.0001 15.5001 12.0001 15.5001H12.0001C12.0001 15.5001 12.0001 15.5001 12.0001 15.5001C12.0001 15.5001 12.0001 15.5001 12.0001 15.5001H12.0001C12.0001 15.5001 12.0001 15.5001 12.0001 15.5001C12.0001 15.5001 12.0001 15.5001 12.0001 15.5001H12.0001C12.0001 15.5001 12.0001 15.5001 12.0001 15.5001C12.0001 15.5001 12.0001 15.5001 12.0001 15.5001H12.0001C12.0001 15.5001 12.0001 15.5001 12.0001 15.5001C12.0001 15.5001 12.0001 15.5001 12.0001 15.5001H12.0001C12.0001 15.5001 12.0001 15.5001 12.0001 15.5001C12.0001 15.5001 12.0001 15.5001 12.0001 15.5001H12.0001C12.0001 15.5001 12.0001 15.5001 12.0001 15.5001C12.0001 15.5001 12.0001 15.5001 12.0001 15.5001H12.0001C12.0001 15.5001 12.0001 15.5001 12.0001 15.5001H12.0001C12.0001 15.5001 12.0001 15.5001 12.0001 15.5001C12.0001 15.5001 12.0001 15.5001 12.0001 15.5001H12.0001C12.0001 15.5001 12.0001 15.5001 12.0001 15.5001C12.0001 15.5001 12.0001 15.5001 12.0001 15.5001H12.0001C12.0001 15.5001 12.0001 15.5001 12.0001 15.5001H12.0001C12.0001 15.5001 12.0001 15.5001 12.0001 15.5001C12.0001 15.5001 12.0001 15.5001 12.0001 15.5001H12.0001V17.5001ZM13.0001 16.5001V10.9003H11.0001V16.5001H13.0001ZM12.9739 8.93587C11.8905 8.93587 11.008 9.81003 11.0001 10.893L13.0001 10.9076C13 10.9107 12.9992 10.9157 12.9971 10.9204C12.9954 10.9245 12.9934 10.9271 12.9918 10.9286C12.9903 10.9301 12.9879 10.9319 12.9842 10.9335C12.9799 10.9353 12.9757 10.9359 12.9739 10.9359V8.93587ZM14.9433 10.9031C14.9433 9.81598 14.0597 8.93587 12.9739 8.93587V10.9359C12.9714 10.9359 12.9666 10.9352 12.9618 10.9331C12.9575 10.9313 12.9547 10.9292 12.9528 10.9272C12.9508 10.9253 12.9485 10.9223 12.9465 10.9176C12.9442 10.9122 12.9433 10.9066 12.9433 10.9031L14.9433 10.9031ZM13.9434 9.90309H13.9433V11.9031H13.9434V9.90309ZM14.9434 15.9999V10.9031H12.9434V15.9999H14.9434ZM14.9434 14.9999H13.9434V16.9999H14.9434V14.9999ZM13.9434 9.02832V15.9999H15.9434V9.02832H13.9434Z" fill="black" mask="url(#path-1-outside-1_3546_6379)"/>
</g>
<defs>
<filter id="filter0_d_3546_6379" x="-3" y="-2" width="38" height="38" filterUnits="userSpaceOnUse" color-interpolation-filters="sRGB">
<feFlood flood-opacity="0" result="BackgroundImageFix"/>
<feColorMatrix in="SourceAlpha" type="matrix" values="0 0 0 0 0 0 0 0 0 0 0 0 0 0 0 0 0 0 127 0" result="hardAlpha"/>
<feOffset dy="1"/>
<feGaussianBlur stdDeviation="1.5"/>
<feColorMatrix type="matrix" values="0 0 0 0 0 0 0 0 0 0 0 0 0 0 0 0 0 0 0.35 0"/>
<feBlend mode="normal" in2="BackgroundImageFix" result="effect1_dropShadow_3546_6379"/>
<feBlend mode="normal" in="SourceGraphic" in2="effect1_dropShadow_3546_6379" result="shape"/>
</filter>
</defs>
</svg>